<?xml version="1.0" encoding="iso-8859-1"?>
<!-- Generator: Adobe Illustrator 19.0.0, SVG Export Plug-In . SVG Version: 6.00 Build 0)  -->
<svg version="1.1" id="Layer_1" xmlns="http://www.w3.org/2000/svg" xmlns:xlink="http://www.w3.org/1999/xlink" x="0px" y="0px"
	 viewBox="0 0 512.002 512.002" style="enable-background:new 0 0 512.002 512.002;" xml:space="preserve">
<g>
	<g>
		<path d="M412.056,379.051h-9.187v-90.796v-39.706V189.89c0-26.858-7.301-53.148-21.112-76.026
			c-2.237-3.704-7.053-4.894-10.759-2.659c-3.705,2.237-4.896,7.054-2.659,10.759c12.336,20.434,18.856,43.922,18.856,67.926v50.822
			h-19.893c0.495-0.509,0.97-0.993,1.398-1.429c6.575-6.695,12.783-13.018,9.629-20.536c-2.923-6.965-11.327-7.926-19.973-7.926
			c-23.094,0-42.699,5.491-58.269,16.319c-6.693,4.654-12.56,10.225-17.56,16.651c-7.378-8.708-20.041-10.335-27.513-9.764
			c-7.469-0.576-20.131,1.055-27.512,9.764c-5.001-6.426-10.867-11.998-17.56-16.651c-15.569-10.828-35.174-16.319-58.269-16.319
			c-8.646,0-17.051,0.96-19.973,7.926c-3.155,7.518,3.054,13.842,9.629,20.536c0.428,0.437,0.903,0.921,1.398,1.429h-19.893V189.89
			c0-72.578,59.046-131.624,131.623-131.624h1.113c36.565,0,71.788,15.402,96.634,42.256c2.939,3.178,7.897,3.37,11.075,0.429
			c3.176-2.939,3.37-7.898,0.429-11.075c-18.004-19.458-40.878-33.533-65.873-41.045c0.006-0.353,0.02-0.705,0.02-1.06
			C297.855,21.431,278.749,0,255.265,0c-23.489,0-42.6,21.431-42.6,47.773c0,0.288,0.011,0.576,0.016,0.863
			c-60.933,18.056-105.518,74.543-105.518,141.255v58.659v39.706v90.796h-7.216c-17.371,0-31.505,14.133-31.505,31.507
			c0,17.371,14.132,31.504,31.505,31.504h32.468c4.328,0,7.837-3.508,7.837-7.837c0-4.329-3.509-7.837-7.837-7.837H99.946
			c-8.729,0-15.831-7.102-15.831-15.832c0-8.729,7.101-15.831,15.831-15.831h15.053h280.033h17.023
			c8.729,0,15.831,7.103,15.831,15.833c0,8.729-7.101,15.83-15.831,15.83H161.149c-4.328,0-7.837,3.508-7.837,7.837
			c0,4.329,3.509,7.837,7.837,7.837h40.116c-1.234,4.652-1.89,9.465-1.89,14.299c0,30.68,24.961,55.641,55.641,55.641
			s55.641-24.961,55.641-55.641c0-4.835-0.656-9.648-1.889-14.299h103.289c17.371,0,31.505-14.133,31.505-31.506
			S429.429,379.051,412.056,379.051z M255.266,15.676c14.062,0,25.632,12.93,26.81,29.342c-8.693-1.6-17.563-2.423-26.505-2.423
			h-1.113c-8.871,0-17.562,0.789-26.005,2.299C229.68,28.54,241.234,15.676,255.266,15.676z M325.52,251.114
			c-1.425-4.087-5.894-6.245-9.981-4.818c-9.372,3.268-17.342,7.468-23.971,11.826c10.392-15.923,29.972-31.628,66.788-31.628
			c0.32,0,0.627,0.002,0.921,0.005c-0.616,0.637-1.221,1.254-1.76,1.802c-7.489,7.627-16.809,17.119-14.947,28.272
			c1.752,10.487,9.748,19.62,16.173,26.961c1.394,1.592,3.063,3.498,4.399,5.168c-1.53,0.156-3.592,0.276-6.354,0.287l-51.983-6.648
			c-0.122-0.022-0.247-0.038-0.37-0.053c-0.04-0.005-0.078-0.013-0.118-0.017c-0.005,0-0.009-0.001-0.014-0.002l-15.746-2.014
			c6.809-6.263,17.434-14.03,32.144-19.161C324.788,259.67,326.946,255.2,325.52,251.114z M299.427,297.446l14.703,17.179
			l-21.032,12.826l-18.07-33.125L299.427,297.446z M238.689,254.993c2.935-5.222,12.461-5.587,15.534-5.302
			c0.527,0.053,1.057,0.053,1.584,0c2.507-0.254,12.498-0.102,15.531,5.298c2.523,4.497-0.946,17.318-4.721,25.957
			c-4.452,2.86-9.502,4.094-11.607,4.513c-2.108-0.418-7.146-1.649-11.604-4.516C239.625,272.323,236.153,259.513,238.689,254.993z
			 M235.003,294.326l-18.069,33.125l-21.033-12.826l14.703-17.179L235.003,294.326z M151.675,226.494
			c36.817,0,56.396,15.705,66.789,31.627c-6.629-4.358-14.599-8.558-23.972-11.827c-4.089-1.424-8.555,0.732-9.981,4.819
			c-1.425,4.086,0.731,8.556,4.818,9.981c14.588,5.089,25.234,12.88,32.085,19.169l-15.635,1.999
			c-0.019,0.002-0.037,0.005-0.054,0.008c-0.036,0.004-0.07,0.01-0.106,0.016c-0.141,0.018-0.282,0.036-0.42,0.061l-51.954,6.643
			c-2.761-0.013-4.824-0.132-6.354-0.287c1.336-1.671,3.004-3.576,4.398-5.168c6.424-7.338,14.421-16.474,16.173-26.962
			c1.862-11.152-7.458-20.644-14.947-28.271c-0.538-0.547-1.143-1.164-1.76-1.802C151.048,226.496,151.355,226.494,151.675,226.494z
			 M122.835,256.386h28.523c-1.99,5.542-7.4,11.726-11.863,16.824c-2.132,2.435-4.223,4.827-5.979,7.209h-10.681V256.386z
			 M387.193,379.05H122.836v-82.959h7.129c3.444,7.531,13.457,8.571,23.768,8.571c0.332,0,0.665-0.022,0.994-0.064l32.702-4.182
			l-9.422,11.008c-1.493,1.745-2.146,4.058-1.786,6.327c0.36,2.268,1.698,4.264,3.659,5.461l35.913,21.901
			c1.24,0.757,2.654,1.146,4.08,1.146c0.678,0,1.36-0.088,2.028-0.268c2.071-0.555,3.824-1.935,4.85-3.816l22.839-41.869
			c2.336,0.578,3.984,0.818,4.415,0.874c0.333,0.044,0.67,0.066,1.006,0.066s0.673-0.022,1.006-0.066
			c0.43-0.055,2.079-0.296,4.415-0.874l22.839,41.869c1.026,1.882,2.779,3.261,4.85,3.816c0.668,0.18,1.35,0.268,2.029,0.268
			c1.426,0,2.84-0.39,4.08-1.146l35.913-21.901c1.961-1.196,3.299-3.192,3.659-5.461c0.36-2.268-0.293-4.581-1.786-6.327
			l-9.422-11.009l32.703,4.182c0.329,0.042,0.661,0.064,0.994,0.064c10.311,0,20.324-1.041,23.768-8.571h7.129V379.05z
			 M387.195,280.418h-10.681c-1.755-2.382-3.847-4.774-5.979-7.209c-4.463-5.098-9.874-11.282-11.863-16.824h28.523V280.418z
			 M255.015,496.329c-22.038,0-39.967-17.929-39.967-39.967c0-4.973,0.888-9.764,2.634-14.299h74.666
			c1.746,4.536,2.634,9.327,2.634,14.299C294.983,478.399,277.053,496.329,255.015,496.329z"/>
	</g>
</g>
<g>
</g>
<g>
</g>
<g>
</g>
<g>
</g>
<g>
</g>
<g>
</g>
<g>
</g>
<g>
</g>
<g>
</g>
<g>
</g>
<g>
</g>
<g>
</g>
<g>
</g>
<g>
</g>
<g>
</g>
</svg>
